<svg width="1088" height="1483" viewBox="0 0 1088 1483" fill="none" xmlns="http://www.w3.org/2000/svg">
<g opacity="0.5">
<path opacity="0.0344828" d="M904 344.722C896.954 336.325 886.353 331.147 872.487 329.068C858.613 326.987 841.533 328.019 821.648 331.994C781.88 339.942 731.104 359.614 672.758 389.296C556.08 448.654 409.328 547.939 260.178 673.09C111.028 798.242 -12.2318 925.524 -90.9482 1030.12C-130.311 1082.43 -158.501 1129.02 -173.235 1166.8C-180.602 1185.69 -184.585 1202.33 -184.945 1216.36C-185.304 1230.37 -182.046 1241.71 -175 1250.11C-167.955 1258.51 -157.354 1263.68 -143.488 1265.76C-129.614 1267.85 -112.533 1266.81 -92.6489 1262.84C-52.881 1254.89 -2.10509 1235.22 56.2413 1205.54C172.919 1146.18 319.671 1046.89 468.821 921.741C617.971 796.59 741.231 669.308 819.947 564.71C859.311 512.404 887.501 465.816 902.234 428.032C909.601 409.14 913.584 392.498 913.944 378.474C914.303 364.457 911.045 353.118 904 344.722Z" stroke="#F2F2F7" stroke-width="2"/>
<path opacity="0.0689655" d="M862.492 293.795C854.742 286.044 843.73 281.81 829.735 280.947C815.733 280.083 798.807 282.6 779.345 288.293C740.421 299.677 691.553 323.699 636.016 358.354C524.955 427.654 387.415 539.352 249.74 677.027C112.065 814.702 0.367568 952.242 -68.9329 1063.3C-103.588 1118.84 -127.61 1167.71 -138.994 1206.63C-144.687 1226.09 -147.204 1243.02 -146.34 1257.02C-145.477 1271.02 -141.243 1282.03 -133.492 1289.78C-125.742 1297.53 -114.73 1301.76 -100.735 1302.63C-86.7324 1303.49 -69.807 1300.97 -50.3446 1295.28C-11.4208 1283.9 37.4474 1259.87 92.9848 1225.22C204.046 1155.92 341.586 1044.22 479.26 906.547C616.935 768.872 728.633 631.333 797.933 520.272C832.588 464.734 856.61 415.866 867.995 376.942C873.687 357.48 876.204 340.555 875.34 326.552C874.477 312.557 870.243 301.545 862.492 293.795Z" stroke="#F2F2F7" stroke-width="2"/>
<path opacity="0.103448" d="M817.194 246.656C808.798 239.61 797.459 236.352 783.442 236.712C769.417 237.071 752.776 241.054 733.884 248.421C696.1 263.155 649.512 291.345 597.206 330.708C492.608 409.424 365.326 532.684 240.174 681.834C115.023 830.984 15.7376 977.736 -43.6196 1094.41C-73.3019 1152.76 -92.9737 1203.54 -100.922 1243.3C-104.897 1263.19 -105.929 1280.27 -103.848 1294.14C-101.769 1308.01 -96.5909 1318.61 -88.1944 1325.66C-79.7978 1332.7 -68.4587 1335.96 -54.4423 1335.6C-40.4175 1335.24 -23.7759 1331.26 -4.88371 1323.89C32.8998 1309.16 79.4883 1280.97 131.794 1241.6C236.392 1162.89 363.674 1039.63 488.826 890.477C613.977 741.327 713.262 594.575 772.62 477.897C802.302 419.551 821.974 368.775 829.922 329.007C833.897 309.123 834.929 292.042 832.848 278.168C830.769 264.302 825.591 253.701 817.194 246.656Z" stroke="#F2F2F7" stroke-width="2"/>
<path opacity="0.137931" d="M768.451 203.622C759.473 197.335 747.893 195.078 733.961 196.658C720.021 198.239 703.79 203.657 685.612 212.642C649.256 230.613 605.302 262.756 556.626 306.528C459.286 394.061 343.232 527.945 231.556 687.436C119.879 846.926 33.7623 1001.77 -15.1998 1123.18C-39.684 1183.89 -54.8556 1236.19 -59.3079 1276.5C-61.5342 1296.65 -61.0741 1313.76 -57.7919 1327.4C-54.5115 1341.03 -48.4296 1351.14 -39.451 1357.43C-30.4723 1363.71 -18.8924 1365.97 -4.96065 1364.39C8.97946 1362.81 25.2106 1357.39 43.3888 1348.41C79.7444 1330.44 123.699 1298.29 172.375 1254.52C269.714 1166.99 385.769 1033.1 497.445 873.613C609.121 714.123 695.238 559.277 744.2 437.869C768.684 377.158 783.856 324.861 788.308 284.551C790.535 264.396 790.075 247.291 786.792 233.651C783.512 220.019 777.43 209.909 768.451 203.622Z" stroke="#F2F2F7" stroke-width="2"/>
<path opacity="0.172414" d="M716.634 164.981C707.141 159.5 695.409 158.261 681.668 161.049C667.918 163.839 652.221 170.651 634.895 181.186C600.244 202.257 559.259 238.109 514.583 285.957C425.243 381.641 321.299 525.13 223.948 693.747C126.597 862.363 54.3038 1024.13 16.1093 1149.34C-2.99034 1211.95 -13.5462 1265.37 -14.4684 1305.92C-14.9295 1326.19 -12.9804 1343.19 -8.52181 1356.49C-4.06588 1369.79 2.87399 1379.33 12.3664 1384.81C21.8589 1390.29 33.5915 1391.53 47.3325 1388.74C61.0818 1385.95 76.7789 1379.14 94.1048 1368.6C128.756 1347.53 169.741 1311.68 214.417 1263.83C303.757 1168.15 407.701 1024.66 505.052 856.042C602.403 687.426 674.696 525.663 712.891 400.45C731.991 337.836 742.546 284.415 743.469 243.871C743.93 223.599 741.981 206.599 737.522 193.296C733.066 180.002 726.126 170.461 716.634 164.981Z" stroke="#F2F2F7" stroke-width="2"/>
<path opacity="0.206897" d="M662.136 130.98C652.202 126.348 640.406 126.136 626.961 130.111C613.507 134.088 598.463 142.242 582.121 154.248C549.439 178.259 511.734 217.546 471.398 269.106C390.737 372.212 299.695 524.215 217.41 700.674C135.126 877.134 77.206 1044.58 50.0699 1172.65C36.5001 1236.69 30.6403 1290.82 33.2552 1331.3C34.5627 1351.53 37.9861 1368.3 43.5871 1381.16C49.1847 1394.01 56.9297 1402.91 66.8637 1407.55C76.7977 1412.18 88.5937 1412.39 102.039 1408.42C115.493 1404.44 130.537 1396.28 146.879 1384.28C179.561 1360.27 217.266 1320.98 257.602 1269.42C338.263 1166.31 429.305 1014.31 511.59 837.852C593.874 661.393 651.794 493.945 678.93 365.879C692.5 301.839 698.36 247.702 695.745 207.231C694.437 186.996 691.014 170.23 685.413 157.367C679.815 144.512 672.07 135.612 662.136 130.98Z" stroke="#F2F2F7" stroke-width="2"/>
<path opacity="0.241379" d="M605.374 101.836C595.074 98.0867 583.304 98.9032 570.256 104.035C557.2 109.17 542.924 118.604 527.691 131.989C497.225 158.756 463.088 201.18 427.4 256.059C356.032 365.803 278.584 525.163 211.992 708.122C145.4 891.082 102.295 1062.94 86.4237 1192.88C78.4871 1257.86 77.368 1312.31 83.5001 1352.39C86.5663 1372.44 91.4378 1388.84 98.1386 1401.17C104.835 1413.49 113.327 1421.68 123.626 1425.43C133.926 1429.17 145.696 1428.36 158.744 1423.23C171.8 1418.09 186.076 1408.66 201.309 1395.27C231.775 1368.5 265.912 1326.08 301.6 1271.2C372.968 1161.46 450.416 1002.1 517.008 819.139C583.6 636.179 626.705 464.32 642.576 334.377C650.513 269.398 651.632 214.956 645.5 174.867C642.434 154.823 637.562 138.42 630.862 126.094C624.165 113.775 615.674 105.584 605.374 101.836Z" stroke="#F2F2F7" stroke-width="2"/>
<path opacity="0.275862" d="M546.778 77.733C536.191 74.8961 524.537 76.7353 511.986 82.9849C499.427 89.2382 486.028 99.8808 472.019 114.542C444.002 143.863 413.692 189.101 382.923 246.881C321.392 362.428 258.127 527.931 207.735 715.998C157.342 904.065 129.379 1079.03 124.894 1209.86C122.651 1275.28 126.281 1329.62 135.884 1369.02C140.685 1388.72 146.968 1404.63 154.717 1416.33C162.462 1428.02 171.635 1435.44 182.222 1438.27C192.81 1441.11 204.463 1439.27 217.015 1433.02C229.573 1426.77 242.973 1416.13 256.981 1401.46C284.998 1372.14 315.308 1326.91 346.077 1269.12C407.609 1153.58 470.873 988.075 521.266 800.008C571.658 611.941 599.621 436.979 604.107 306.147C606.35 240.723 602.72 186.391 593.117 146.99C588.315 127.289 582.033 111.372 574.283 99.6774C566.538 87.9895 557.365 80.5699 546.778 77.733Z" stroke="#F2F2F7" stroke-width="2"/>
<path opacity="0.310345" d="M486.795 58.8043C476 56.901 464.551 59.7489 452.593 67.0686C440.627 74.3927 428.206 86.1626 415.528 101.989C390.174 133.64 363.922 181.348 338.305 241.59C287.079 362.06 238.48 532.447 204.67 724.19C170.861 915.934 158.253 1092.67 165.187 1223.39C168.655 1288.76 177.006 1342.57 190.007 1380.99C196.507 1400.19 204.153 1415.5 212.892 1426.48C221.626 1437.45 231.411 1444.04 242.205 1445.94C253 1447.84 264.449 1445 276.407 1437.68C288.373 1430.35 300.794 1418.58 313.472 1402.76C338.826 1371.1 365.078 1323.4 390.695 1263.15C441.921 1142.69 490.52 972.298 524.33 780.555C558.139 588.811 570.747 412.078 563.813 281.353C560.345 215.982 551.994 162.173 538.993 123.759C532.493 104.551 524.847 89.243 516.108 78.2681C507.374 67.2996 497.589 60.7077 486.795 58.8043Z" stroke="#F2F2F7" stroke-width="2"/>
<path opacity="0.344828" d="M425.881 45.1541C414.961 44.1988 403.804 48.0337 392.529 56.3679C381.247 64.707 369.899 77.5146 358.649 94.3854C336.15 128.126 314.156 177.94 293.887 240.186C253.355 364.662 219.791 538.636 202.822 732.597C185.852 926.557 188.696 1103.72 206.997 1233.34C216.149 1298.16 229.159 1351.04 245.458 1388.17C253.607 1406.74 262.558 1421.32 272.221 1431.49C281.878 1441.66 292.199 1447.37 303.119 1448.33C314.038 1449.28 325.195 1445.45 336.47 1437.12C347.752 1428.78 359.1 1415.97 370.35 1399.1C392.85 1365.36 414.844 1315.54 435.112 1253.3C475.644 1128.82 509.208 954.847 526.177 760.887C543.147 566.926 540.303 389.766 522.002 260.143C512.85 195.324 499.84 142.447 483.542 105.312C475.392 86.744 466.441 72.1605 456.778 61.989C447.122 51.8235 436.8 46.1094 425.881 45.1541Z" stroke="#F2F2F7" stroke-width="2"/>
<path opacity="0.37931" d="M364.5 36.8416C353.539 36.8416 342.758 41.6343 332.252 50.9194C321.74 60.2101 311.552 73.958 301.815 91.7451C282.342 127.318 264.773 178.86 250.007 242.635C220.478 370.17 202.204 546.407 202.204 741.109C202.204 935.81 220.478 1112.05 250.007 1239.58C264.773 1303.36 282.342 1354.9 301.815 1390.47C311.552 1408.26 321.74 1422.01 332.252 1431.3C342.758 1440.58 353.539 1445.38 364.5 1445.38C375.461 1445.38 386.241 1440.58 396.747 1431.3C407.26 1422.01 417.448 1408.26 427.185 1390.47C446.658 1354.9 464.226 1303.36 478.993 1239.58C508.522 1112.05 526.795 935.81 526.795 741.109C526.795 546.407 508.522 370.17 478.993 242.635C464.226 178.86 446.658 127.318 427.185 91.7451C417.448 73.958 407.26 60.2101 396.747 50.9194C386.241 41.6343 375.461 36.8416 364.5 36.8416Z" stroke="#F2F2F7" stroke-width="2"/>
<path opacity="0.413793" d="M303.119 33.8889C292.199 34.8442 281.878 40.5583 272.221 50.7238C262.558 60.8953 253.607 75.4788 245.458 94.0469C229.159 131.182 216.149 184.058 206.997 248.878C188.696 378.501 185.852 555.661 202.822 749.621C219.791 943.582 253.355 1117.56 293.887 1242.03C314.156 1304.28 336.149 1354.09 358.649 1387.83C369.899 1404.7 381.247 1417.51 392.529 1425.85C403.804 1434.18 414.961 1438.02 425.881 1437.06C436.8 1436.11 447.122 1430.39 456.778 1420.23C466.441 1410.06 475.392 1395.47 483.542 1376.91C499.84 1339.77 512.85 1286.89 522.002 1222.07C540.303 1092.45 543.147 915.292 526.177 721.331C509.208 527.371 475.644 353.397 435.112 228.921C414.844 166.675 392.85 116.861 370.35 83.1202C359.1 66.2494 347.752 53.4417 336.47 45.1027C325.195 36.7685 314.038 32.9336 303.119 33.8889Z" stroke="#F2F2F7" stroke-width="2"/>
<path opacity="0.448276" d="M242.205 36.2771C231.41 38.1805 221.626 44.7724 212.892 55.7408C204.152 66.7158 196.506 82.024 190.006 101.232C177.006 139.646 168.654 193.455 165.187 258.826C158.252 389.551 170.86 566.284 204.67 758.027C238.479 949.771 287.078 1120.16 338.305 1240.63C363.921 1300.87 390.173 1348.58 415.528 1380.23C428.206 1396.05 440.626 1407.82 452.592 1415.15C464.551 1422.47 476 1425.32 486.794 1423.41C497.589 1421.51 507.373 1414.92 516.107 1403.95C524.847 1392.97 532.492 1377.67 538.993 1358.46C551.993 1320.04 560.345 1266.24 563.812 1200.86C570.746 1070.14 558.139 893.406 524.329 701.663C490.52 509.919 441.921 339.532 390.694 219.063C365.078 158.82 338.826 111.113 313.471 79.4615C300.793 63.6354 288.373 51.8655 276.407 44.5414C264.448 37.2217 252.999 34.3738 242.205 36.2771Z" stroke="#F2F2F7" stroke-width="2"/>
<path opacity="0.482759" d="M182.222 43.9467C171.634 46.7836 162.462 54.2032 154.717 65.8912C146.967 77.586 140.685 93.5024 135.883 113.203C126.28 152.605 122.65 206.937 124.893 272.361C129.379 403.193 157.342 578.155 207.734 766.222C258.127 954.289 321.391 1119.79 382.922 1235.34C413.692 1293.12 444.002 1338.36 472.019 1367.68C486.027 1382.34 499.426 1392.98 511.985 1399.24C524.536 1405.48 536.19 1407.32 546.777 1404.49C557.365 1401.65 566.538 1394.23 574.283 1382.54C582.032 1370.85 588.315 1354.93 593.116 1335.23C602.719 1295.83 606.349 1241.5 604.106 1176.07C599.62 1045.24 571.657 870.279 521.265 682.212C470.873 494.144 407.608 328.642 346.077 213.095C315.307 155.315 284.998 110.076 256.981 80.7555C242.972 66.0945 229.573 55.4519 217.014 49.1986C204.463 42.949 192.809 41.1098 182.222 43.9467Z" stroke="#F2F2F7" stroke-width="2"/>
<path opacity="0.517241" d="M123.626 56.79C113.326 60.5389 104.835 68.7297 98.1381 81.0482C91.4373 93.374 86.5657 109.777 83.4996 129.822C77.3674 169.91 78.4865 224.352 86.4232 289.332C102.294 419.275 145.4 591.134 211.992 774.093C278.584 957.053 356.032 1116.41 427.399 1226.16C463.088 1281.03 497.225 1323.46 527.691 1350.23C542.924 1363.61 557.2 1373.05 570.256 1378.18C583.304 1383.31 595.073 1384.13 605.373 1380.38C615.673 1376.63 624.164 1368.44 630.861 1356.12C637.562 1343.8 642.433 1327.39 645.499 1307.35C651.632 1267.26 650.513 1212.82 642.576 1147.84C626.705 1017.9 583.599 846.036 517.007 663.077C450.416 480.117 372.967 320.758 301.6 211.014C265.911 156.135 231.774 113.711 201.308 86.943C186.075 73.5588 171.799 64.1245 158.744 58.9896C145.695 53.8577 133.926 53.0412 123.626 56.79Z" stroke="#F2F2F7" stroke-width="2"/>
<path opacity="0.551724" d="M66.8636 74.6723C56.9296 79.3046 49.1846 88.2043 43.587 101.06C37.986 113.922 34.5626 130.688 33.2551 150.924C30.6402 191.394 36.5 245.531 50.0698 309.571C77.2059 437.637 135.126 605.085 217.41 781.544C299.695 958.004 390.737 1110.01 471.398 1213.11C511.733 1264.67 549.438 1303.96 582.121 1327.97C598.463 1339.98 613.507 1348.13 626.96 1352.11C640.406 1356.08 652.202 1355.87 662.136 1351.24C672.07 1346.61 679.815 1337.71 685.413 1324.85C691.014 1311.99 694.437 1295.22 695.745 1274.99C698.36 1234.52 692.5 1180.38 678.93 1116.34C651.794 988.274 593.874 820.826 511.589 644.366C429.305 467.907 338.263 315.904 257.602 212.798C217.266 161.238 179.561 121.951 146.879 97.9401C130.537 85.9345 115.493 77.7803 102.039 73.8028C88.5936 69.8276 76.7976 70.04 66.8636 74.6723Z" stroke="#F2F2F7" stroke-width="2"/>
<path opacity="0.586207" d="M12.3661 97.4103C2.87368 102.891 -4.06618 112.432 -8.52209 125.726C-12.9807 139.028 -14.9299 156.028 -14.4687 176.301C-13.5465 216.845 -2.99068 270.265 16.109 332.879C54.3035 458.092 126.597 619.855 223.948 788.471C321.299 957.088 425.243 1100.58 514.583 1196.26C559.258 1244.11 600.244 1279.96 634.895 1301.03C652.221 1311.57 667.918 1318.38 681.667 1321.17C695.408 1323.96 707.141 1322.72 716.634 1317.24C726.126 1311.76 733.066 1302.22 737.522 1288.92C741.98 1275.62 743.929 1258.62 743.468 1238.35C742.546 1197.8 731.99 1144.38 712.891 1081.77C674.696 956.555 602.403 794.792 505.052 626.176C407.701 457.56 303.757 314.07 214.417 218.386C169.741 170.538 128.756 134.686 94.1045 113.616C76.7786 103.08 61.0815 96.2681 47.3322 93.4783C33.5911 90.6901 21.8586 91.9298 12.3661 97.4103Z" stroke="#F2F2F7" stroke-width="2"/>
<path opacity="0.62069" d="M-39.4509 124.792C-48.4296 131.079 -54.5115 141.188 -57.7918 154.82C-61.0741 168.46 -61.5342 185.566 -59.3079 205.721C-54.8555 246.03 -39.684 298.327 -15.1998 359.039C33.7624 480.446 119.879 635.293 231.556 794.783C343.232 954.273 459.286 1088.16 556.626 1175.69C605.302 1219.46 649.256 1251.61 685.612 1269.58C703.79 1278.56 720.021 1283.98 733.961 1285.56C747.893 1287.14 759.473 1284.88 768.451 1278.6C777.43 1272.31 783.512 1262.2 786.792 1248.57C790.075 1234.93 790.535 1217.82 788.308 1197.67C783.856 1157.36 768.684 1105.06 744.2 1044.35C695.238 922.942 609.121 768.095 497.445 608.605C385.769 449.115 269.714 315.231 172.375 227.698C123.699 183.925 79.7444 151.782 43.3888 133.812C25.2105 124.826 8.9795 119.408 -4.96059 117.827C-18.8924 116.247 -30.4723 118.505 -39.4509 124.792Z" stroke="#F2F2F7" stroke-width="2"/>
<path opacity="0.655172" d="M-88.1944 156.561C-96.5909 163.607 -101.769 174.208 -103.848 188.074C-105.929 201.948 -104.897 219.028 -100.922 238.913C-92.9738 278.681 -73.302 329.457 -43.6196 387.803C15.7376 504.481 115.023 651.233 240.174 800.383C365.326 949.533 492.608 1072.79 597.206 1151.51C649.512 1190.87 696.1 1219.06 733.884 1233.8C752.776 1241.16 769.417 1245.15 783.442 1245.51C797.459 1245.87 808.798 1242.61 817.194 1235.56C825.591 1228.52 830.769 1217.91 832.848 1204.05C834.929 1190.17 833.897 1173.09 829.922 1153.21C821.974 1113.44 802.302 1062.67 772.62 1004.32C713.262 887.642 613.977 740.89 488.826 591.74C363.674 442.59 236.392 319.33 131.794 240.614C79.4883 201.25 32.8997 173.06 -4.88373 158.327C-23.776 150.96 -40.4175 146.977 -54.4423 146.617C-68.4588 146.258 -79.7978 149.516 -88.1944 156.561Z" stroke="#F2F2F7" stroke-width="2"/>
<path opacity="0.689655" d="M-133.492 192.439C-141.243 200.189 -145.477 211.201 -146.34 225.196C-147.204 239.199 -144.687 256.124 -138.995 275.586C-127.61 314.51 -103.588 363.378 -68.9332 418.916C0.367389 529.977 112.065 667.517 249.74 805.191C387.414 942.866 524.954 1054.56 636.015 1123.86C691.553 1158.52 740.421 1182.54 779.345 1193.93C798.807 1199.62 815.732 1202.14 829.735 1201.27C843.73 1200.41 854.742 1196.17 862.492 1188.42C870.243 1180.67 874.477 1169.66 875.34 1155.67C876.204 1141.66 873.687 1124.74 867.994 1105.28C856.61 1066.35 832.588 1017.48 797.933 961.947C728.632 850.886 616.935 713.346 479.26 575.671C341.585 437.996 204.045 326.299 92.9845 256.998C37.4471 222.343 -11.421 198.321 -50.3448 186.937C-69.8073 181.244 -86.7326 178.727 -100.735 179.591C-114.73 180.454 -125.742 184.688 -133.492 192.439Z" stroke="#F2F2F7" stroke-width="2"/>
<path opacity="0.724138" d="M-175.001 232.106C-182.046 240.503 -185.304 251.842 -184.945 265.858C-184.585 279.883 -180.602 296.524 -173.235 315.417C-158.502 353.2 -130.311 399.789 -90.9483 452.094C-12.2319 556.693 111.028 683.974 260.178 809.126C409.328 934.278 556.08 1033.56 672.758 1092.92C731.104 1122.6 781.88 1142.27 821.648 1150.22C841.533 1154.2 858.613 1155.23 872.487 1153.15C886.353 1151.07 896.954 1145.89 904 1137.49C911.045 1129.1 914.303 1117.76 913.944 1103.74C913.584 1089.72 909.601 1073.08 902.234 1054.18C887.501 1016.4 859.31 969.812 819.947 917.506C741.231 812.908 617.971 685.627 468.821 560.475C319.671 435.323 172.919 336.038 56.2412 276.681C-2.10524 246.998 -52.8811 227.327 -92.649 219.378C-112.534 215.404 -129.614 214.371 -143.488 216.452C-157.354 218.532 -167.955 223.709 -175.001 232.106Z" stroke="#F2F2F7" stroke-width="2"/>
<path opacity="0.758621" d="M-212.402 275.218C-218.689 284.196 -220.947 295.776 -219.367 309.708C-217.786 323.648 -212.368 339.879 -203.382 358.057C-185.412 394.413 -153.269 438.367 -109.497 487.043C-21.9634 584.383 111.921 700.437 271.411 812.113C430.901 923.79 585.748 1009.91 707.155 1058.87C767.866 1083.35 820.164 1098.52 860.473 1102.98C880.628 1105.2 897.733 1104.74 911.374 1101.46C925.005 1098.18 935.115 1092.1 941.402 1083.12C947.689 1074.14 949.946 1062.56 948.366 1048.63C946.786 1034.69 941.367 1018.46 932.382 1000.28C914.412 963.925 882.268 919.97 838.496 871.294C750.963 773.955 617.079 657.9 457.589 546.224C298.098 434.548 143.252 348.431 21.8445 299.469C-38.8669 274.985 -91.1641 259.813 -131.473 255.361C-151.629 253.134 -168.734 253.594 -182.374 256.877C-196.006 260.157 -206.115 266.239 -212.402 275.218Z" stroke="#F2F2F7" stroke-width="2"/>
<path opacity="0.793103" d="M-245.414 321.405C-250.894 330.897 -252.134 342.63 -249.346 356.371C-246.556 370.12 -239.744 385.817 -229.208 403.143C-208.137 437.794 -172.286 478.779 -124.438 523.455C-28.7538 612.795 114.736 716.739 283.352 814.09C451.969 911.441 613.731 983.735 738.944 1021.93C801.558 1041.03 854.979 1051.58 895.523 1052.51C915.795 1052.97 932.796 1051.02 946.098 1046.56C959.392 1042.1 968.933 1035.16 974.413 1025.67C979.894 1016.18 981.133 1004.45 978.345 990.706C975.555 976.957 968.743 961.259 958.208 943.933C937.137 909.282 901.285 868.297 853.437 823.621C757.754 734.281 614.264 630.337 445.648 532.986C277.031 435.635 115.268 363.342 -9.94462 325.147C-72.5589 306.048 -125.979 295.492 -166.523 294.57C-186.796 294.109 -203.796 296.058 -217.098 300.516C-230.392 304.972 -239.933 311.912 -245.414 321.405Z" stroke="#F2F2F7" stroke-width="2"/>
<path opacity="0.827586" d="M-273.783 370.271C-278.416 380.204 -278.628 392 -274.653 405.446C-270.675 418.9 -262.521 433.944 -250.516 450.285C-226.505 482.968 -187.218 520.673 -135.658 561.009C-32.5517 641.67 119.451 732.712 295.911 814.996C472.37 897.281 639.818 955.201 767.883 982.337C831.924 995.907 886.061 1001.77 926.531 999.151C946.767 997.844 963.532 994.421 976.395 988.82C989.251 983.222 998.15 975.477 1002.78 965.543C1007.41 955.609 1007.63 943.813 1003.65 930.367C999.675 916.914 991.52 901.87 979.515 885.528C955.504 852.845 916.217 815.14 864.657 774.805C761.551 694.144 609.548 603.102 433.089 520.817C256.629 438.533 89.181 380.613 -38.8843 353.477C-102.925 339.907 -157.062 334.047 -197.532 336.662C-217.768 337.97 -234.533 341.393 -247.396 346.994C-260.251 352.592 -269.151 360.337 -273.783 370.271Z" stroke="#F2F2F7" stroke-width="2"/>
<path opacity="0.862069" d="M-297.294 421.403C-301.043 431.703 -300.227 443.472 -295.095 456.52C-289.96 469.576 -280.526 483.852 -267.141 499.085C-240.374 529.551 -197.95 563.688 -143.071 599.377C-33.3267 670.744 126.033 748.192 308.992 814.784C491.952 881.376 663.811 924.482 793.754 940.353C858.733 948.289 913.175 949.409 953.263 943.276C973.308 940.21 989.711 935.339 1002.04 928.638C1014.36 921.941 1022.55 913.45 1026.3 903.15C1030.04 892.85 1029.23 881.081 1024.1 868.032C1018.96 854.976 1009.53 840.701 996.142 825.467C969.375 795.002 926.95 760.864 872.072 725.176C762.328 653.809 602.968 576.36 420.009 509.769C237.049 443.177 65.1902 400.071 -64.7528 384.2C-129.732 376.263 -184.174 375.144 -224.263 381.276C-244.307 384.343 -260.71 389.214 -273.036 395.915C-285.355 402.612 -293.546 411.103 -297.294 421.403Z" stroke="#F2F2F7" stroke-width="2"/>
<path opacity="0.896552" d="M-315.77 474.368C-318.607 484.955 -316.768 496.609 -310.518 509.16C-304.265 521.719 -293.622 535.118 -278.961 549.127C-249.64 577.144 -204.402 607.454 -146.622 638.223C-31.0753 699.754 134.428 763.019 322.495 813.411C510.562 863.804 685.524 891.767 816.356 896.252C881.78 898.495 936.112 894.865 975.513 885.262C995.214 880.461 1011.13 874.178 1022.83 866.429C1034.51 858.684 1041.93 849.511 1044.77 838.924C1047.61 828.336 1045.77 816.683 1039.52 804.131C1033.26 791.573 1022.62 778.173 1007.96 764.165C978.64 736.148 933.402 705.838 875.622 675.068C760.075 613.537 594.572 550.273 406.505 499.88C218.438 449.488 43.4761 421.525 -87.3558 417.039C-152.78 414.796 -207.112 418.426 -246.513 428.029C-266.214 432.831 -282.131 439.113 -293.826 446.863C-305.514 454.608 -312.933 463.781 -315.77 474.368Z" stroke="#F2F2F7" stroke-width="2"/>
<path opacity="0.931035" d="M-329.068 528.72C-330.971 539.514 -328.123 550.963 -320.804 562.922C-313.48 574.888 -301.71 587.308 -285.884 599.986C-254.232 625.341 -206.525 651.593 -146.282 677.209C-25.8128 728.436 144.574 777.035 336.318 810.844C528.061 844.654 704.795 857.261 835.519 850.327C900.89 846.86 954.699 838.508 993.113 825.508C1012.32 819.007 1027.63 811.361 1038.6 802.622C1049.57 793.888 1056.16 784.104 1058.07 773.309C1059.97 762.515 1057.12 751.066 1049.8 739.107C1042.48 727.141 1030.71 714.72 1014.88 702.043C983.232 676.688 935.525 650.436 875.282 624.82C754.813 573.593 584.426 524.994 392.682 491.185C200.939 457.375 24.2056 444.767 -106.519 451.702C-171.89 455.169 -225.699 463.521 -264.113 476.521C-283.321 483.021 -298.629 490.667 -309.604 499.407C-320.573 508.141 -327.165 517.925 -329.068 528.72Z" stroke="#F2F2F7" stroke-width="2"/>
<path opacity="0.965517" d="M-337.087 584.004C-338.042 594.924 -334.207 606.081 -325.873 617.356C-317.534 628.638 -304.726 639.986 -287.856 651.236C-254.115 673.735 -204.301 695.729 -142.055 715.998C-17.5794 756.53 156.395 790.094 350.356 807.063C544.316 824.033 721.476 821.189 851.099 802.888C915.918 793.736 968.795 780.726 1005.93 764.427C1024.5 756.278 1039.08 747.327 1049.25 737.664C1059.42 728.007 1065.13 717.686 1066.09 706.766C1067.04 695.847 1063.21 684.69 1054.87 673.415C1046.54 662.133 1033.73 650.785 1016.86 639.535C983.116 617.035 933.302 595.041 871.056 574.773C746.58 534.241 572.606 500.677 378.645 483.708C184.685 466.738 7.52535 469.582 -122.098 487.883C-186.917 497.035 -239.794 510.045 -276.929 526.343C-295.497 534.493 -310.081 543.444 -320.252 553.107C-330.418 562.763 -336.132 573.085 -337.087 584.004Z" stroke="#F2F2F7" stroke-width="2"/>
<path d="M-339.768 639.753C-339.768 650.714 -334.975 661.495 -325.69 672.001C-316.399 682.513 -302.651 692.701 -284.864 702.438C-249.291 721.912 -197.75 739.48 -133.974 754.247C-6.43933 783.776 169.798 802.049 364.5 802.049C559.201 802.049 735.439 783.776 862.973 754.247C926.749 739.48 978.29 721.912 1013.86 702.438C1031.65 692.701 1045.4 682.513 1054.69 672.001C1063.97 661.495 1068.77 650.714 1068.77 639.753C1068.77 628.793 1063.97 618.012 1054.69 607.506C1045.4 596.994 1031.65 586.806 1013.86 577.069C978.29 557.595 926.749 540.027 862.973 525.26C735.439 495.731 559.201 477.458 364.5 477.458C169.798 477.458 -6.43933 495.731 -133.974 525.26C-197.75 540.027 -249.291 557.595 -284.864 577.069C-302.651 586.806 -316.399 596.994 -325.69 607.506C-334.975 618.012 -339.768 628.793 -339.768 639.753Z" stroke="#F2F2F7" stroke-width="2"/>
</g>
</svg>
